<?xml version="1.0" encoding="UTF-8"?>
<svg width="455px" height="455px" viewBox="0 0 455 455" version="1.1" xmlns="http://www.w3.org/2000/svg" xmlns:xlink="http://www.w3.org/1999/xlink">
    <!-- Generator: Sketch 63.1 (92452) - https://sketch.com -->
    <title>Logo</title>
    <desc>Created with Sketch.</desc>
    <defs>
        <linearGradient x1="0%" y1="116.0603%" x2="384.584363%" y2="-49.5918574%" id="linearGradient-1">
            <stop stop-color="#E74C3C" offset="0%"></stop>
            <stop stop-color="#E67E22" offset="20%"></stop>
            <stop stop-color="#F1C40F" offset="40%"></stop>
            <stop stop-color="#2ECC71" offset="60%"></stop>
            <stop stop-color="#3498DB" offset="80%"></stop>
            <stop stop-color="#9B59B6" offset="100%"></stop>
        </linearGradient>
        <linearGradient x1="-22.0961202%" y1="308.479141%" x2="457.671475%" y2="-36.3915109%" id="linearGradient-2">
            <stop stop-color="#E74C3C" offset="0%"></stop>
            <stop stop-color="#E67E22" offset="20%"></stop>
            <stop stop-color="#F1C40F" offset="40%"></stop>
            <stop stop-color="#2ECC71" offset="60%"></stop>
            <stop stop-color="#3498DB" offset="80%"></stop>
            <stop stop-color="#9B59B6" offset="100%"></stop>
        </linearGradient>
        <linearGradient x1="392.735672%" y1="114.331929%" x2="10.3345862%" y2="-48.0277079%" id="linearGradient-3">
            <stop stop-color="#E74C3C" offset="0%"></stop>
            <stop stop-color="#E67E22" offset="20%"></stop>
            <stop stop-color="#F1C40F" offset="40%"></stop>
            <stop stop-color="#2ECC71" offset="60%"></stop>
            <stop stop-color="#3498DB" offset="80%"></stop>
            <stop stop-color="#9B59B6" offset="100%"></stop>
        </linearGradient>
        <linearGradient x1="-370.144451%" y1="309.785823%" x2="113.02626%" y2="-34.2376399%" id="linearGradient-4">
            <stop stop-color="#E74C3C" offset="0%"></stop>
            <stop stop-color="#E67E22" offset="20%"></stop>
            <stop stop-color="#F1C40F" offset="40%"></stop>
            <stop stop-color="#2ECC71" offset="60%"></stop>
            <stop stop-color="#3498DB" offset="80%"></stop>
            <stop stop-color="#9B59B6" offset="100%"></stop>
        </linearGradient>
        <linearGradient x1="-118.004594%" y1="226.137923%" x2="209.626731%" y2="-8.81652179%" id="linearGradient-5">
            <stop stop-color="#E74C3C" offset="0%"></stop>
            <stop stop-color="#E67E22" offset="20%"></stop>
            <stop stop-color="#F1C40F" offset="40%"></stop>
            <stop stop-color="#2ECC71" offset="60%"></stop>
            <stop stop-color="#3498DB" offset="80%"></stop>
            <stop stop-color="#9B59B6" offset="100%"></stop>
        </linearGradient>
        <linearGradient x1="-33.3370376%" y1="63.964391%" x2="128.547988%" y2="2.52904334%" id="linearGradient-6">
            <stop stop-color="#E74C3C" offset="0%"></stop>
            <stop stop-color="#E67E22" offset="20%"></stop>
            <stop stop-color="#F1C40F" offset="40%"></stop>
            <stop stop-color="#2ECC71" offset="60%"></stop>
            <stop stop-color="#3498DB" offset="80%"></stop>
            <stop stop-color="#9B59B6" offset="100%"></stop>
        </linearGradient>
    </defs>
    <g id="Page-1" stroke="none" stroke-width="1" fill="none" fill-rule="evenodd">
        <g id="Artboard" transform="translate(-1201.000000, -1238.000000)">
            <g id="Logo" transform="translate(1214.000000, 1251.000000)">
                <g id="Users" transform="translate(63.000000, 113.000000)">
                    <g id="UserL" transform="translate(0.000000, 15.000000)">
                        <path d="M31,83 L56.6175885,83 C61.4633788,83 66.2334216,84.2026117 70.5,86.5 L74.4155097,88.6083514 C75.3880512,89.1320276 75.7519285,90.3449517 75.2282523,91.3174932 C75.109507,91.5380201 74.9503958,91.7342805 74.7591945,91.8960662 L64.7519769,100.363712 C64.2808638,100.762365 63.6520887,100.921182 63.0481716,100.794075 C57.3654477,99.598025 51.6827239,99 46,99 C42.3333333,99 38.6666667,99 35,99 C25.0588745,99 17,107.058875 17,117 L17,117 L17,117 L17,121 C17,125.418278 13.418278,129 9,129 L8,129 C3.581722,129 5.41083001e-16,125.418278 0,121 L0,114 L0,114 C-2.09669663e-15,96.8791728 13.8791728,83 31,83 Z" id="Rectangle" fill="url(#linearGradient-1)"></path>
                        <circle id="Oval-Copy" stroke="url(#linearGradient-2)" stroke-width="16" cx="46.5" cy="30.5" r="30.5"></circle>
                    </g>
                    <g id="UserR" transform="translate(227.000000, 15.000000)">
                        <path d="M31,82 L56.6175885,82 C61.4633788,82 66.2334216,83.2026117 70.5,85.5 L74.4155097,87.6083514 C75.3880512,88.1320276 75.7519285,89.3449517 75.2282523,90.3174932 C75.109507,90.5380201 74.9503958,90.7342805 74.7591945,90.8960662 L64.7519769,99.3637118 C64.2808638,99.7623653 63.6520887,99.9211822 63.0481716,99.794075 C57.3654477,98.598025 51.6827239,98 46,98 C42.3333333,98 38.6666667,98 35,98 C25.0588745,98 17,106.058875 17,116 L17,116 L17,116 L17,120 C17,124.418278 13.418278,128 9,128 L8,128 C3.581722,128 5.41083001e-16,124.418278 0,120 L0,113 L0,113 C-2.09669663e-15,95.8791728 13.8791728,82 31,82 Z" id="Rectangle-Copy-4" fill="url(#linearGradient-3)" transform="translate(38.500000, 105.000000) scale(-1, 1) translate(-38.500000, -105.000000) "></path>
                        <circle id="Oval-Copy-2" stroke="url(#linearGradient-4)" stroke-width="16" cx="30.5" cy="30.5" r="30.5"></circle>
                    </g>
                    <g id="UserC" transform="translate(61.000000, 0.000000)">
                        <circle id="Oval" stroke="url(#linearGradient-5)" stroke-width="16" cx="91" cy="45" r="45"></circle>
                        <path d="M166.242336,182.173946 L159.656918,142.860995 C158.123426,133.706515 150.200042,127 140.918011,127 L131,127 L131,127 L96.5594579,128.722027 C92.9068598,128.904657 89.2469931,128.886778 85.5963536,128.668469 C72.4334085,127.881324 60.5679573,127.325168 50,127 C47.6650073,126.928154 45.4814022,126.870294 43.4491846,126.826419 C33.490946,126.611425 24.8923109,133.756904 23.2809411,143.586259 L16.9522746,182.191125 C16.5055452,184.916174 18.3524885,187.487409 21.0775378,187.934138 C21.3449328,187.977974 21.6154487,188 21.8864129,188 L98,188 L98,188 L98,204 L20,204 C8.954305,204 1.11632554e-14,195.045695 0,184 L0,156.378796 C1.62962613e-05,129.645409 21.6717081,107.973717 48.4050946,107.973717 C48.936838,107.973717 49.4685453,107.98248 50,108 C50,108 50,108 50,108 C58.6762106,108.286029 67.3872485,109.069514 76.1331137,110.350455 L76.1331137,110.350455 C85.8576004,111.774727 95.7389325,111.757643 105.458436,110.299754 C113.762481,109.054178 122.276336,108.287593 131,108 C131.135426,107.995535 131.270888,107.991153 131.406385,107.986852 C158.475591,107.127626 181.116071,128.374998 181.975314,155.444203 C181.99177,155.962639 182,156.481303 182,157 L182,184 C182,195.045695 173.045695,204 162,204 L98,204 L98,204 L98,188 L161.311045,188 C164.072468,188 166.311045,185.761424 166.311045,183 C166.311045,182.723222 166.288063,182.446921 166.242336,182.173946 Z" id="Rectangle" fill="url(#linearGradient-6)"></path>
                    </g>
                </g>
                <circle id="Border" stroke="#000000" stroke-width="26" cx="214.5" cy="214.5" r="214.5"></circle>
            </g>
        </g>
    </g>
</svg>